<svg xmlns="http://www.w3.org/2000/svg" width="1800" height="1040" viewBox="0 0 1800 1040" role="img" aria-labelledby="title desc">
  <title id="title">Reconstruccion de correo a partir de fragmentos enmascarados</title>
  <desc id="desc">Fragmentos de un correo enmascarado en diferentes plataformas se combinan en un correo reconstruido.</desc>
  <defs>
    <marker id="arrow" viewBox="0 0 10 10" refX="9" refY="5" markerWidth="11" markerHeight="11" orient="auto-start-reverse">
      <path d="M0 0L10 5L0 10Z" fill="#252525"/>
    </marker>
    <filter id="shadow" x="-12%" y="-14%" width="124%" height="136%">
      <feDropShadow dx="0" dy="14" stdDeviation="16" flood-color="#000000" flood-opacity="0.14"/>
    </filter>
  </defs>

  <rect width="1800" height="1040" fill="#fffdf8"/>
  <rect x="54" y="54" width="1692" height="932" rx="32" fill="#faf6ec" stroke="#e6decd" stroke-width="2"/>

  <text x="110" y="136" fill="#1f1f1f" font-family="IBM Plex Sans, Arial, sans-serif" font-size="52" font-weight="700">Reconstruccion por fragmentos</text>
  <text x="112" y="184" fill="#665d56" font-family="IBM Plex Sans, Arial, sans-serif" font-size="28">Enmascaramientos diferentes pueden revelar partes complementarias del mismo correo.</text>

  <g font-family="IBM Plex Sans, Arial, sans-serif">
    <text x="112" y="270" fill="#5e6970" font-size="25" font-weight="700">Fragmentos observados</text>
    <text x="1185" y="270" fill="#5e6970" font-size="25" font-weight="700">Resultado combinado</text>
  </g>

  <g font-family="IBM Plex Sans, Arial, sans-serif" filter="url(#shadow)">
    <g transform="translate(112 310)">
      <rect width="700" height="88" rx="18" fill="#ffffff" stroke="#e1dacd" stroke-width="2"/>
      <text x="30" y="36" fill="#687580" font-size="21" font-weight="700">Instagram</text>
      <text x="30" y="70" fill="#111111" font-size="32" font-family="IBM Plex Mono, Menlo, monospace">h***********a@g***l.com</text>
    </g>
    <g transform="translate(112 426)">
      <rect width="700" height="88" rx="18" fill="#ffffff" stroke="#e1dacd" stroke-width="2"/>
      <text x="30" y="36" fill="#687580" font-size="21" font-weight="700">Twitter</text>
      <text x="30" y="70" fill="#111111" font-size="32" font-family="IBM Plex Mono, Menlo, monospace">*************@gmail.com</text>
    </g>
    <g transform="translate(112 542)">
      <rect width="700" height="88" rx="18" fill="#ffffff" stroke="#e1dacd" stroke-width="2"/>
      <text x="30" y="36" fill="#687580" font-size="21" font-weight="700">LinkedIn</text>
      <text x="30" y="70" fill="#111111" font-size="32" font-family="IBM Plex Mono, Menlo, monospace">*******ouvea@gm********</text>
    </g>
    <g transform="translate(112 658)">
      <rect width="700" height="88" rx="18" fill="#ffffff" stroke="#e1dacd" stroke-width="2"/>
      <text x="30" y="36" fill="#687580" font-size="21" font-weight="700">Facebook</text>
      <text x="30" y="70" fill="#111111" font-size="32" font-family="IBM Plex Mono, Menlo, monospace">hei**********@gma***om</text>
    </g>
    <g transform="translate(112 774)">
      <rect width="700" height="88" rx="18" fill="#ffffff" stroke="#e1dacd" stroke-width="2"/>
      <text x="30" y="36" fill="#687580" font-size="21" font-weight="700">Telegram</text>
      <text x="30" y="70" fill="#111111" font-size="32" font-family="IBM Plex Mono, Menlo, monospace">*****r.******ea@g*****.com</text>
    </g>
  </g>

  <g stroke="#252525" stroke-width="4" fill="none" marker-end="url(#arrow)" opacity="0.82">
    <path d="M842 354 C990 354 1000 488 1140 488"/>
    <path d="M842 470 C990 470 1000 510 1140 510"/>
    <path d="M842 586 C990 586 1000 532 1140 532"/>
    <path d="M842 702 C990 702 1000 554 1140 554"/>
    <path d="M842 818 C990 818 1000 576 1140 576"/>
  </g>

  <g filter="url(#shadow)" font-family="IBM Plex Sans, Arial, sans-serif">
    <rect x="1140" y="360" width="548" height="292" rx="26" fill="#111111"/>
    <text x="1188" y="420" fill="#fef9c3" font-size="28" font-weight="700">Reconstruccion probable</text>
    <rect x="1188" y="458" width="452" height="82" rx="14" fill="#fffdf8"/>
    <text x="1220" y="511" fill="#111111" font-size="31" font-family="IBM Plex Mono, Menlo, monospace">heitor.gouvea@gmail.com</text>
    <text x="1188" y="596" fill="#e7e7e7" font-size="25">El problema no es un fragmento aislado.</text>
    <text x="1188" y="630" fill="#e7e7e7" font-size="25">Es la suma de exposiciones inconsistentes.</text>
  </g>
</svg>
