<svg xmlns="http://www.w3.org/2000/svg" width="1400" height="900" viewBox="0 0 1400 900" role="img" aria-labelledby="title desc" text-rendering="geometricPrecision">
  <title id="title">Reconstrucción de correo a partir de fragmentos enmascarados</title>
  <desc id="desc">Fragmentos de un correo enmascarado en diferentes plataformas se combinan en un correo reconstruido.</desc>
  <defs>
    <marker id="arrow" viewBox="0 0 10 10" refX="9" refY="5" markerWidth="10" markerHeight="10" orient="auto-start-reverse">
      <path d="M0 0L10 5L0 10Z" fill="#252525"/>
    </marker>
  </defs>

  <rect width="1400" height="900" fill="#fffdf8"/>
  <rect x="36" y="36" width="1328" height="828" rx="26" fill="#faf6ec" stroke="#e6decd" stroke-width="2"/>

  <text x="76" y="108" fill="#1f1f1f" font-family="Arial, sans-serif" font-size="44" font-weight="700">Reconstrucción por fragmentos</text>
  <text x="78" y="148" fill="#665d56" font-family="Arial, sans-serif" font-size="24">Enmascaramientos diferentes pueden revelar partes complementarias del mismo correo.</text>

  <text x="78" y="224" fill="#5e6970" font-family="Arial, sans-serif" font-size="23" font-weight="700">Fragmentos observados</text>
  <text x="886" y="224" fill="#5e6970" font-family="Arial, sans-serif" font-size="23" font-weight="700">Resultado combinado</text>

  <g font-family="Arial, sans-serif">
    <g transform="translate(78 260)">
      <rect width="590" height="78" rx="14" fill="#ffffff" stroke="#e1dacd" stroke-width="2"/>
      <text x="24" y="31" fill="#687580" font-size="18" font-weight="700">Instagram</text>
      <text x="24" y="61" fill="#111111" font-size="28" font-family="Menlo, Consolas, monospace">h***********a@g***l.com</text>
    </g>
    <g transform="translate(78 358)">
      <rect width="590" height="78" rx="14" fill="#ffffff" stroke="#e1dacd" stroke-width="2"/>
      <text x="24" y="31" fill="#687580" font-size="18" font-weight="700">Twitter</text>
      <text x="24" y="61" fill="#111111" font-size="28" font-family="Menlo, Consolas, monospace">*************@gmail.com</text>
    </g>
    <g transform="translate(78 456)">
      <rect width="590" height="78" rx="14" fill="#ffffff" stroke="#e1dacd" stroke-width="2"/>
      <text x="24" y="31" fill="#687580" font-size="18" font-weight="700">LinkedIn</text>
      <text x="24" y="61" fill="#111111" font-size="28" font-family="Menlo, Consolas, monospace">*******ouvea@gm********</text>
    </g>
    <g transform="translate(78 554)">
      <rect width="590" height="78" rx="14" fill="#ffffff" stroke="#e1dacd" stroke-width="2"/>
      <text x="24" y="31" fill="#687580" font-size="18" font-weight="700">Facebook</text>
      <text x="24" y="61" fill="#111111" font-size="28" font-family="Menlo, Consolas, monospace">hei**********@gma***om</text>
    </g>
    <g transform="translate(78 652)">
      <rect width="590" height="78" rx="14" fill="#ffffff" stroke="#e1dacd" stroke-width="2"/>
      <text x="24" y="31" fill="#687580" font-size="18" font-weight="700">Telegram</text>
      <text x="24" y="61" fill="#111111" font-size="28" font-family="Menlo, Consolas, monospace">*****r.******ea@g*****.com</text>
    </g>
  </g>

  <g stroke="#252525" stroke-width="4" fill="none" marker-end="url(#arrow)" opacity="0.8">
    <path d="M690 299 C780 299 790 411 870 411"/>
    <path d="M690 397 C780 397 790 430 870 430"/>
    <path d="M690 495 C780 495 790 449 870 449"/>
    <path d="M690 593 C780 593 790 468 870 468"/>
    <path d="M690 691 C780 691 790 487 870 487"/>
  </g>

  <g font-family="Arial, sans-serif">
    <rect x="850" y="326" width="500" height="286" rx="22" fill="#111111"/>
    <text x="908" y="382" fill="#fef9c3" font-size="26" font-weight="700">Reconstrucción probable</text>
    <rect x="908" y="414" width="388" height="70" rx="12" fill="#fffdf8"/>
    <text x="930" y="459" fill="#111111" font-size="24" font-family="Menlo, Consolas, monospace">heitor.gouvea@gmail.com</text>
    <text x="908" y="526" fill="#e7e7e7" font-size="21">El problema no es un fragmento</text>
    <text x="908" y="556" fill="#e7e7e7" font-size="21">aislado. Es la suma de</text>
    <text x="908" y="586" fill="#e7e7e7" font-size="21">exposiciones inconsistentes.</text>
  </g>
</svg>
